<?xml version="1.0" standalone="no"?>
<!DOCTYPE svg PUBLIC "-//W3C//DTD SVG 20010904//EN"
 "http://www.w3.org/TR/2001/REC-SVG-20010904/DTD/svg10.dtd">
<svg version="1.0" xmlns="http://www.w3.org/2000/svg"
 width="117.000000pt" height="117.000000pt" viewBox="0 0 117.000000 117.000000"
 preserveAspectRatio="xMidYMid meet">
<metadata>
Created by potrace 1.10, written by Peter Selinger 2001-2011
</metadata>
<g transform="translate(0.000000,117.000000) scale(0.100000,-0.100000)"
fill="#000000" stroke="none">
<path d="M555 789 c-83 -25 -119 -113 -79 -190 14 -28 14 -33 -5 -65 -12 -19
-21 -36 -21 -38 0 -1 22 -2 50 -2 51 1 64 9 34 20 -9 4 -14 10 -10 13 8 8 126
12 126 4 0 -2 -6 -12 -14 -20 -13 -14 -10 -16 35 -16 27 0 49 2 49 5 0 3 -8
19 -18 35 -18 29 -18 31 0 60 10 17 18 39 18 50 -1 15 -4 12 -14 -11 -8 -18
-19 -34 -24 -38 -6 -3 -29 28 -52 69 -22 42 -44 74 -48 71 -5 -3 -19 -27 -32
-55 -13 -28 -27 -51 -32 -51 -13 0 -8 94 6 113 8 10 31 26 52 37 41 20 30 25
-21 9z m50 -180 c20 -37 16 -43 -19 -30 -23 9 -25 13 -14 36 6 14 13 25 14 25
2 0 11 -14 19 -31z m-79 7 c10 4 16 4 12 -1 -4 -4 -3 -14 3 -21 11 -13 5 -34
-10 -34 -4 0 -14 12 -22 28 -18 36 -23 50 -11 34 5 -8 16 -10 28 -6z"/>
<path d="M586 771 c-5 -7 2 -11 18 -11 14 0 38 -11 53 -24 24 -21 28 -31 27
-73 l-1 -48 14 33 c16 39 9 73 -21 101 -26 25 -81 38 -90 22z"/>
<path d="M440 435 c-13 -35 -13 -40 4 -26 8 7 17 8 20 3 6 -10 56 -10 72 0 6
4 14 5 18 1 3 -4 17 -7 30 -8 20 0 24 4 23 25 -2 14 -9 25 -17 25 -8 0 -14 -8
-14 -17 2 -26 -13 -22 -20 5 l-6 22 -13 -23 c-12 -20 -15 -21 -26 -9 -9 12 -9
16 1 20 8 3 6 6 -6 6 -14 1 -17 -4 -13 -19 3 -13 0 -20 -9 -20 -8 0 -14 6 -14
14 0 27 -20 27 -30 1z"/>
<path d="M647 453 c-11 -10 -8 -41 3 -48 6 -4 17 -1 25 5 12 10 15 10 16 -1 0
-8 4 -5 9 6 7 18 8 19 15 3 4 -10 11 -15 16 -12 12 7 11 54 -1 54 -5 0 -10 -5
-10 -11 0 -8 -5 -8 -15 1 -12 10 -15 10 -15 -1 0 -10 -3 -10 -12 -1 -14 14
-22 15 -31 5z"/>
<path d="M520 380 c0 -4 25 -7 55 -7 30 0 55 3 55 7 0 5 -25 8 -55 8 -30 -1
-55 -4 -55 -8z"/>
<path d="M640 380 c0 -5 14 -10 30 -10 17 0 30 5 30 10 0 6 -13 10 -30 10 -16
0 -30 -4 -30 -10z"/>
<path d="M710 380 c0 -5 16 -10 35 -10 19 0 35 5 35 10 0 6 -16 10 -35 10 -19
0 -35 -4 -35 -10z"/>
</g>
</svg>
